<?xml version="1.0" encoding="UTF-8"?>
<!DOCTYPE svg PUBLIC "-//W3C//DTD SVG 1.1//EN" "http://www.w3.org/Graphics/SVG/1.1/DTD/svg11.dtd">
<svg xmlns="http://www.w3.org/2000/svg" version="1.1" width="500px" height="500px" style="shape-rendering:geometricPrecision; text-rendering:geometricPrecision; image-rendering:optimizeQuality; fill-rule:evenodd; clip-rule:evenodd" xmlns:xlink="http://www.w3.org/1999/xlink">
<g><path style="opacity:1" fill="#d8aa81" d="M 214.5,91.5 C 211.57,90.701 208.57,90.3677 205.5,90.5C 206.134,89.0532 207.301,88.3866 209,88.5C 211.399,88.6132 213.232,89.6132 214.5,91.5 Z"/></g>
<g><path style="opacity:1" fill="#be7a3a" d="M 310.5,89.5 C 310.427,91.0269 311.094,92.0269 312.5,92.5C 313.931,93.7804 314.598,95.4471 314.5,97.5C 314.294,100.495 314.96,103.162 316.5,105.5C 317.696,118.151 318.862,130.818 320,143.5C 320.21,145.058 320.71,146.391 321.5,147.5C 322.673,152.522 324.006,157.522 325.5,162.5C 325.427,164.027 326.094,165.027 327.5,165.5C 329.503,167.015 331.837,167.681 334.5,167.5C 339.73,166.978 344.73,165.645 349.5,163.5C 353.767,162.744 357.767,161.411 361.5,159.5C 366.744,159.395 371.744,160.395 376.5,162.5C 377.11,164.434 378.11,166.101 379.5,167.5C 380.229,172.13 380.563,176.797 380.5,181.5C 378.702,187.687 377.035,194.02 375.5,200.5C 374.127,200.343 372.793,200.51 371.5,201C 370.24,203.268 368.906,205.434 367.5,207.5C 365.265,204.709 363.265,201.709 361.5,198.5C 369.273,190.29 373.773,180.623 375,169.5C 373.833,168.333 372.667,167.167 371.5,166C 359.931,164.38 349.264,166.713 339.5,173C 335.175,175.482 332.175,178.982 330.5,183.5C 330.406,185.912 331.406,187.745 333.5,189C 340.712,192.439 348.045,195.606 355.5,198.5C 352.42,200.29 349.087,201.79 345.5,203C 327.151,213.7 307.817,222.033 287.5,228C 276.46,231.13 270.46,226.963 269.5,215.5C 267.994,214.253 266.494,214.253 265,215.5C 263.809,222.892 266.309,228.726 272.5,233C 279.819,234.957 287.153,234.957 294.5,233C 316.086,225.625 336.919,216.459 357,205.5C 359.031,208.544 361.531,211.377 364.5,214C 366.473,214.495 368.473,214.662 370.5,214.5C 369.766,215.708 369.433,217.041 369.5,218.5C 368.069,219.78 367.402,221.447 367.5,223.5C 365.399,226.797 364.065,230.463 363.5,234.5C 359.778,242.347 357.445,250.68 356.5,259.5C 354.78,263.557 353.614,267.89 353,272.5C 349.761,291.839 349.761,311.172 353,330.5C 353.232,331.737 353.732,332.737 354.5,333.5C 355.546,336.728 356.212,340.061 356.5,343.5C 356.32,347.286 357.32,350.619 359.5,353.5C 359.421,354.93 359.754,356.264 360.5,357.5C 352.528,358.498 344.528,358.831 336.5,358.5C 333.5,358.5 330.5,358.5 327.5,358.5C 326.585,349.197 325.918,339.864 325.5,330.5C 320.768,329.65 316.101,328.484 311.5,327C 309.816,324.214 310.483,322.38 313.5,321.5C 316.839,322.501 320.172,323.501 323.5,324.5C 324.791,320.955 324.791,317.455 323.5,314C 315.526,312.503 307.526,311.17 299.5,310C 298.62,308.644 298.286,307.144 298.5,305.5C 306.883,305.603 315.216,306.269 323.5,307.5C 322.112,288.287 319.279,269.287 315,250.5C 313.587,245.261 311.587,240.261 309,235.5C 306.668,232.209 303.835,231.709 300.5,234C 296.201,239.547 293.035,245.713 291,252.5C 280.409,268.737 265.909,273.237 247.5,266C 244.628,263.463 242.128,260.63 240,257.5C 235.922,249.009 231.588,240.676 227,232.5C 225.274,231.424 223.441,231.257 221.5,232C 213.865,241.21 208.698,251.71 206,263.5C 201.764,276.18 199.264,289.18 198.5,302.5C 204.84,302.849 211.173,303.349 217.5,304C 218.406,305.699 218.739,307.533 218.5,309.5C 211.152,308.546 203.819,308.546 196.5,309.5C 195.293,313.744 194.626,318.077 194.5,322.5C 197.53,322.092 200.53,321.426 203.5,320.5C 207.687,319.841 209.02,321.341 207.5,325C 202.478,326.001 197.645,327.501 193,329.5C 191.282,339.142 189.782,348.809 188.5,358.5C 176.495,358.667 164.495,358.5 152.5,358C 153.406,356.301 153.739,354.467 153.5,352.5C 166.103,302.09 177.436,251.424 187.5,200.5C 189.773,195.549 190.773,190.216 190.5,184.5C 190.795,179.436 191.462,174.436 192.5,169.5C 194.25,165.817 194.917,161.817 194.5,157.5C 195.355,146.81 196.355,136.144 197.5,125.5C 199.222,118.063 200.222,110.396 200.5,102.5C 200.627,97.7679 202.293,93.7679 205.5,90.5C 208.57,90.3677 211.57,90.701 214.5,91.5C 217.973,93.6367 220.306,96.6367 221.5,100.5C 223.659,106.151 226.326,111.484 229.5,116.5C 229.933,119.166 230.433,121.832 231,124.5C 231.792,126.644 233.292,127.977 235.5,128.5C 235.427,130.027 236.094,131.027 237.5,131.5C 238.833,134.833 241.167,137.167 244.5,138.5C 245.71,138.932 246.71,139.599 247.5,140.5C 247.611,141.117 247.944,141.617 248.5,142C 252.833,142.667 257.167,142.667 261.5,142C 262.942,141.623 263.942,140.79 264.5,139.5C 264.842,138.662 265.508,138.328 266.5,138.5C 268.749,137.92 270.415,136.587 271.5,134.5C 271.833,133.5 272.5,132.833 273.5,132.5C 275.914,131.089 277.581,129.089 278.5,126.5C 282.896,118.711 287.063,110.711 291,102.5C 292.371,99.7339 294.204,97.4006 296.5,95.5C 299.167,93.5 301.5,91.1667 303.5,88.5C 304.274,87.8529 305.274,87.5195 306.5,87.5C 308.355,87.3402 309.688,88.0069 310.5,89.5 Z"/></g>
<g><path style="opacity:0.325" fill="#ebd5c1" d="M 310.5,89.5 C 311.906,89.9731 312.573,90.9731 312.5,92.5C 311.094,92.0269 310.427,91.0269 310.5,89.5 Z"/></g>
<g><path style="opacity:0.792" fill="#deb896" d="M 303.5,88.5 C 301.5,91.1667 299.167,93.5 296.5,95.5C 297.833,92.1667 300.167,89.8333 303.5,88.5 Z"/></g>
<g><path style="opacity:0.192" fill="#eedccb" d="M 221.5,100.5 C 225.207,105.247 227.874,110.581 229.5,116.5C 226.326,111.484 223.659,106.151 221.5,100.5 Z"/></g>
<g><path style="opacity:0.271" fill="#ebd5c1" d="M 314.5,97.5 C 316.04,99.8383 316.706,102.505 316.5,105.5C 314.96,103.162 314.294,100.495 314.5,97.5 Z"/></g>
<g><path style="opacity:0.996" fill="#dab18b" d="M 200.5,102.5 C 200.222,110.396 199.222,118.063 197.5,125.5C 197.45,117.56 198.45,109.894 200.5,102.5 Z"/></g>
<g><path style="opacity:1" fill="#ddae86" d="M 229.5,116.5 C 232.008,120.182 234.008,124.182 235.5,128.5C 233.292,127.977 231.792,126.644 231,124.5C 230.433,121.832 229.933,119.166 229.5,116.5 Z"/></g>
<g><path style="opacity:0.678" fill="#e2bfa0" d="M 278.5,126.5 C 277.581,129.089 275.914,131.089 273.5,132.5C 274.419,129.911 276.086,127.911 278.5,126.5 Z"/></g>
<g><path style="opacity:0.424" fill="#e9d0b9" d="M 235.5,128.5 C 236.906,128.973 237.573,129.973 237.5,131.5C 236.094,131.027 235.427,130.027 235.5,128.5 Z"/></g>
<g><path style="opacity:0.616" fill="#e8cdb5" d="M 237.5,131.5 C 240.167,133.5 242.5,135.833 244.5,138.5C 241.167,137.167 238.833,134.833 237.5,131.5 Z"/></g>
<g><path style="opacity:0.204" fill="#e8ceb6" d="M 316.5,105.5 C 319.117,119.245 320.784,133.245 321.5,147.5C 320.71,146.391 320.21,145.058 320,143.5C 318.862,130.818 317.696,118.151 316.5,105.5 Z"/></g>
<g><path style="opacity:0.639" fill="#e0bd9c" d="M 271.5,134.5 C 270.415,136.587 268.749,137.92 266.5,138.5C 267.585,136.413 269.251,135.08 271.5,134.5 Z"/></g>
<g><path style="opacity:0.973" fill="#dbb18b" d="M 264.5,139.5 C 263.942,140.79 262.942,141.623 261.5,142C 257.167,142.667 252.833,142.667 248.5,142C 247.944,141.617 247.611,141.117 247.5,140.5C 253.283,142.005 258.95,141.672 264.5,139.5 Z"/></g>
<g><path style="opacity:1" fill="#512713" d="M 305.5,155.5 C 308.339,165.686 310.005,176.019 310.5,186.5C 309.5,186.5 308.5,186.5 307.5,186.5C 305.773,177.69 303.606,169.024 301,160.5C 299.956,161.623 299.29,162.956 299,164.5C 298.145,170.862 297.145,177.196 296,183.5C 294.644,184.38 293.144,184.714 291.5,184.5C 291.732,174.84 293.565,165.507 297,156.5C 299.441,151.673 302.275,151.34 305.5,155.5 Z"/></g>
<g><path style="opacity:1" fill="#512814" d="M 262.5,172.5 C 260.95,180.108 259.283,187.775 257.5,195.5C 254.468,195.822 252.801,194.489 252.5,191.5C 254.731,181.511 256.898,171.511 259,161.5C 260.713,156.962 263.88,155.462 268.5,157C 273.934,169.575 276.768,182.742 277,196.5C 274.224,198.14 272.224,197.473 271,194.5C 269.918,185.003 268.084,175.669 265.5,166.5C 265.167,166.167 264.833,165.833 264.5,165.5C 263.579,167.777 262.913,170.11 262.5,172.5 Z"/></g>
<g><path style="opacity:0.961" fill="#e0bc9b" d="M 361.5,159.5 C 364.64,158.359 367.973,158.192 371.5,159C 373.584,159.697 375.251,160.864 376.5,162.5C 371.744,160.395 366.744,159.395 361.5,159.5 Z"/></g>
<g><path style="opacity:0.902" fill="#d9af88" d="M 361.5,159.5 C 357.767,161.411 353.767,162.744 349.5,163.5C 353.085,161.194 357.085,159.861 361.5,159.5 Z"/></g>
<g><path style="opacity:0.278" fill="#f0dece" d="M 325.5,162.5 C 326.906,162.973 327.573,163.973 327.5,165.5C 326.094,165.027 325.427,164.027 325.5,162.5 Z"/></g>
<g><path style="opacity:0.522" fill="#e9ceb8" d="M 376.5,162.5 C 378.727,163.401 379.727,165.067 379.5,167.5C 378.11,166.101 377.11,164.434 376.5,162.5 Z"/></g>
<g><path style="opacity:0.933" fill="#deb794" d="M 194.5,157.5 C 194.917,161.817 194.25,165.817 192.5,169.5C 192.717,165.295 193.383,161.295 194.5,157.5 Z"/></g>
<g><path style="opacity:1" fill="#4d2511" d="M 375.5,200.5 C 375.678,201.695 376.011,202.862 376.5,204C 375.68,205.8 375.014,207.634 374.5,209.5C 373.778,209.082 373.278,208.416 373,207.5C 372.685,209.586 372.185,211.586 371.5,213.5C 370.833,213.5 370.5,213.833 370.5,214.5C 368.473,214.662 366.473,214.495 364.5,214C 361.531,211.377 359.031,208.544 357,205.5C 336.919,216.459 316.086,225.625 294.5,233C 287.153,234.957 279.819,234.957 272.5,233C 266.309,228.726 263.809,222.892 265,215.5C 266.494,214.253 267.994,214.253 269.5,215.5C 270.46,226.963 276.46,231.13 287.5,228C 307.817,222.033 327.151,213.7 345.5,203C 349.087,201.79 352.42,200.29 355.5,198.5C 348.045,195.606 340.712,192.439 333.5,189C 331.406,187.745 330.406,185.912 330.5,183.5C 332.175,178.982 335.175,175.482 339.5,173C 349.264,166.713 359.931,164.38 371.5,166C 372.667,167.167 373.833,168.333 375,169.5C 373.773,180.623 369.273,190.29 361.5,198.5C 363.265,201.709 365.265,204.709 367.5,207.5C 368.906,205.434 370.24,203.268 371.5,201C 372.793,200.51 374.127,200.343 375.5,200.5 Z"/></g>
<g><path style="opacity:0.143" fill="#f5ece2" d="M 379.5,167.5 C 380.973,170.017 381.64,172.85 381.5,176C 381.494,178.033 381.161,179.866 380.5,181.5C 380.563,176.797 380.229,172.13 379.5,167.5 Z"/></g>
<g><path style="opacity:1" fill="#a26e44" d="M 305.5,155.5 C 306.966,156.347 307.8,157.68 308,159.5C 308.528,163.943 309.528,168.277 311,172.5C 311.499,177.489 311.666,182.489 311.5,187.5C 309.901,187.768 308.568,187.434 307.5,186.5C 308.5,186.5 309.5,186.5 310.5,186.5C 310.005,176.019 308.339,165.686 305.5,155.5 Z"/></g>
<g><path style="opacity:1" fill="#9a663c" d="M 262.5,172.5 C 262.255,179.562 261.422,186.562 260,193.5C 259.583,194.756 258.75,195.423 257.5,195.5C 259.283,187.775 260.95,180.108 262.5,172.5 Z"/></g>
<g><path style="opacity:0.984" fill="#d9ae87" d="M 190.5,184.5 C 190.773,190.216 189.773,195.549 187.5,200.5C 188.087,194.963 189.087,189.63 190.5,184.5 Z"/></g>
<g><path style="opacity:0.259" fill="#e4d4c7" d="M 380.5,181.5 C 380.191,188.046 378.857,194.38 376.5,200.5C 378.004,204.315 377.337,207.648 374.5,210.5C 374.5,210.167 374.5,209.833 374.5,209.5C 375.014,207.634 375.68,205.8 376.5,204C 376.011,202.862 375.678,201.695 375.5,200.5C 377.035,194.02 378.702,187.687 380.5,181.5 Z"/></g>
<g><path style="opacity:1" fill="#8d6e60" d="M 374.5,209.5 C 374.5,209.833 374.5,210.167 374.5,210.5C 374.144,212.19 373.144,213.19 371.5,213.5C 372.185,211.586 372.685,209.586 373,207.5C 373.278,208.416 373.778,209.082 374.5,209.5 Z"/></g>
<g><path style="opacity:0.29" fill="#e9d5c2" d="M 371.5,213.5 C 371.598,215.553 370.931,217.22 369.5,218.5C 369.433,217.041 369.766,215.708 370.5,214.5C 370.5,213.833 370.833,213.5 371.5,213.5 Z"/></g>
<g><path style="opacity:0.337" fill="#ead3be" d="M 369.5,218.5 C 369.598,220.553 368.931,222.22 367.5,223.5C 367.402,221.447 368.069,219.78 369.5,218.5 Z"/></g>
<g><path style="opacity:0.278" fill="#edd9c6" d="M 367.5,223.5 C 366.935,227.537 365.601,231.203 363.5,234.5C 364.065,230.463 365.399,226.797 367.5,223.5 Z"/></g>
<g><path style="opacity:1" fill="#f6be6c" d="M 336.5,358.5 C 336.5,358.833 336.5,359.167 336.5,359.5C 287.17,358.755 237.837,358.422 188.5,358.5C 189.782,348.809 191.282,339.142 193,329.5C 197.645,327.501 202.478,326.001 207.5,325C 209.02,321.341 207.687,319.841 203.5,320.5C 200.53,321.426 197.53,322.092 194.5,322.5C 194.626,318.077 195.293,313.744 196.5,309.5C 203.819,308.546 211.152,308.546 218.5,309.5C 218.739,307.533 218.406,305.699 217.5,304C 211.173,303.349 204.84,302.849 198.5,302.5C 199.264,289.18 201.764,276.18 206,263.5C 208.698,251.71 213.865,241.21 221.5,232C 223.441,231.257 225.274,231.424 227,232.5C 231.588,240.676 235.922,249.009 240,257.5C 242.128,260.63 244.628,263.463 247.5,266C 265.909,273.237 280.409,268.737 291,252.5C 293.035,245.713 296.201,239.547 300.5,234C 303.835,231.709 306.668,232.209 309,235.5C 311.587,240.261 313.587,245.261 315,250.5C 319.279,269.287 322.112,288.287 323.5,307.5C 315.216,306.269 306.883,305.603 298.5,305.5C 298.286,307.144 298.62,308.644 299.5,310C 307.526,311.17 315.526,312.503 323.5,314C 324.791,317.455 324.791,320.955 323.5,324.5C 320.172,323.501 316.839,322.501 313.5,321.5C 310.483,322.38 309.816,324.214 311.5,327C 316.101,328.484 320.768,329.65 325.5,330.5C 325.918,339.864 326.585,349.197 327.5,358.5C 330.5,358.5 333.5,358.5 336.5,358.5 Z"/></g>
<g><path style="opacity:0.004" fill="#edd9c6" d="M 363.5,234.5 C 361.34,242.968 359.006,251.302 356.5,259.5C 357.445,250.68 359.778,242.347 363.5,234.5 Z"/></g>
<g><path style="opacity:0.282" fill="#ead1bb" d="M 356.5,259.5 C 351.438,284.082 350.771,308.749 354.5,333.5C 353.732,332.737 353.232,331.737 353,330.5C 349.761,311.172 349.761,291.839 353,272.5C 353.614,267.89 354.78,263.557 356.5,259.5 Z"/></g>
<g><path style="opacity:1" fill="#512915" d="M 225.5,277.5 C 236.177,276.255 244.343,280.255 250,289.5C 251.584,294.362 250.084,296.028 245.5,294.5C 243.024,290.19 239.69,286.69 235.5,284C 230.539,283.525 225.872,284.191 221.5,286C 220.483,284.951 220.316,283.784 221,282.5C 222.366,280.638 223.866,278.972 225.5,277.5 Z"/></g>
<g><path style="opacity:1" fill="#512914" d="M 285.5,278.5 C 290.449,277.959 295.116,278.792 299.5,281C 301.229,282.789 301.896,284.956 301.5,287.5C 298.436,287.856 295.769,287.023 293.5,285C 291.5,284.333 289.5,284.333 287.5,285C 283.167,288 279.5,291.667 276.5,296C 272.664,296.825 271.164,295.325 272,291.5C 275.736,286.262 280.236,281.929 285.5,278.5 Z"/></g>
<g><path style="opacity:1" fill="#532b17" d="M 256.5,299.5 C 259.777,299.216 262.943,299.549 266,300.5C 265.309,302.593 264.476,304.76 263.5,307C 265.063,312.182 267.563,312.682 271,308.5C 271.495,306.527 271.662,304.527 271.5,302.5C 274.243,302.077 275.576,303.244 275.5,306C 273.718,314.391 269.051,316.558 261.5,312.5C 256.912,316.812 252.745,316.479 249,311.5C 247.851,308.607 247.351,305.607 247.5,302.5C 248.822,302.33 249.989,302.663 251,303.5C 251.21,306.234 252.044,308.734 253.5,311C 257.293,312.052 259.293,310.552 259.5,306.5C 258.023,304.361 257.023,302.028 256.5,299.5 Z"/></g>
<g><path style="opacity:0.769" fill="#e7cab0" d="M 356.5,343.5 C 358.277,346.505 359.277,349.838 359.5,353.5C 357.32,350.619 356.32,347.286 356.5,343.5 Z"/></g>
<g><path style="opacity:0.392" fill="#f4daba" d="M 153.5,352.5 C 153.739,354.467 153.406,356.301 152.5,358C 164.495,358.5 176.495,358.667 188.5,358.5C 237.837,358.422 287.17,358.755 336.5,359.5C 275.001,360.07 213.335,360.07 151.5,359.5C 151.721,356.933 152.388,354.599 153.5,352.5 Z"/></g>
<g><path style="opacity:0.399" fill="#e9d1ba" d="M 359.5,353.5 C 360.725,354.937 361.725,356.604 362.5,358.5C 353.859,359.498 345.192,359.831 336.5,359.5C 336.5,359.167 336.5,358.833 336.5,358.5C 344.528,358.831 352.528,358.498 360.5,357.5C 359.754,356.264 359.421,354.93 359.5,353.5 Z"/></g>
<g><path style="opacity:0.894" fill="#82675a" d="M 44.5,366.5 C 38.773,366.26 33.1064,366.593 27.5,367.5C 27.6107,366.883 27.944,366.383 28.5,366C 34.0164,365.183 39.3497,365.349 44.5,366.5 Z"/></g>
<g><path style="opacity:1" fill="#4e2a19" d="M 94.5,368.5 C 94.702,370.95 94.3686,373.283 93.5,375.5C 93.3893,376.117 93.056,376.617 92.5,377C 88.4649,377.697 84.4649,377.53 80.5,376.5C 77.9082,378.026 76.9082,380.359 77.5,383.5C 86.0568,382.554 88.7235,386.054 85.5,394C 82.854,394.497 80.1873,394.664 77.5,394.5C 77.5,397.167 77.5,399.833 77.5,402.5C 80.5,402.5 83.5,402.5 86.5,402.5C 89.6085,402.264 92.6085,402.597 95.5,403.5C 96.9252,406.723 96.5919,409.89 94.5,413C 86.2446,414.572 77.9113,414.905 69.5,414C 65.5719,412.908 63.2386,410.408 62.5,406.5C 62.5,395.833 62.5,385.167 62.5,374.5C 61.8202,369.003 64.1535,365.836 69.5,365C 76.1667,364.333 82.8333,364.333 89.5,365C 91.9732,365.22 93.6398,366.386 94.5,368.5 Z"/></g>
<g><path style="opacity:1" fill="#4e2a19" d="M 454.5,401.5 C 455.334,402.748 456.667,403.415 458.5,403.5C 460.045,403.489 461.378,403.156 462.5,402.5C 471.964,398.764 475.464,401.764 473,411.5C 472.097,412.701 470.931,413.535 469.5,414C 461.833,414.667 454.167,414.667 446.5,414C 441.683,412.68 439.349,409.514 439.5,404.5C 439.5,397.167 439.5,389.833 439.5,382.5C 439.5,381.833 439.5,381.167 439.5,380.5C 439.704,377.482 440.037,374.482 440.5,371.5C 440.695,367.141 443.029,364.974 447.5,365C 455.232,364.144 462.898,364.477 470.5,366C 472.745,368.896 473.078,372.063 471.5,375.5C 470.975,376.192 470.308,376.692 469.5,377C 465.118,377.457 460.784,377.457 456.5,377C 455.577,379.041 455.244,381.208 455.5,383.5C 463.079,382.865 465.745,386.199 463.5,393.5C 460.634,394.208 457.8,394.875 455,395.5C 454.505,397.473 454.338,399.473 454.5,401.5 Z"/></g>
<g><path style="opacity:1" fill="#4c2716" d="M 44.5,366.5 C 51.839,366.826 57.1724,370.16 60.5,376.5C 61.7425,380.484 61.7425,384.484 60.5,388.5C 59.3418,391.822 57.0084,393.988 53.5,395C 49.6049,396.266 45.6049,396.766 41.5,396.5C 41.6658,401.179 41.4992,405.845 41,410.5C 36.5224,414.935 31.5224,415.602 26,412.5C 25.7305,409.776 25.2305,407.109 24.5,404.5C 25.3128,392.879 25.8128,381.213 26,369.5C 26.2784,368.584 26.7784,367.918 27.5,367.5C 33.1064,366.593 38.773,366.26 44.5,366.5 Z M 47.5,378.5 C 49.9263,379.353 50.7596,381.019 50,383.5C 47.2617,384.482 44.4284,385.148 41.5,385.5C 41.5,383.167 41.5,380.833 41.5,378.5C 43.5,378.5 45.5,378.5 47.5,378.5 Z"/></g>
<g><path style="opacity:1" fill="#4d2918" d="M 135.5,368.5 C 135.5,370.833 135.5,373.167 135.5,375.5C 135.306,377.912 133.973,378.912 131.5,378.5C 128.302,377.964 125.635,378.631 123.5,380.5C 123.666,390.839 123.5,401.172 123,411.5C 119.033,413.386 114.866,413.886 110.5,413C 109.107,411.829 108.273,410.329 108,408.5C 107.832,399.149 107.332,389.816 106.5,380.5C 103.557,379.756 100.557,379.256 97.5,379C 96.244,378.583 95.5774,377.75 95.5,376.5C 95.3677,373.43 95.701,370.43 96.5,367.5C 96.9175,366.778 97.5842,366.278 98.5,366C 109.833,365.333 121.167,365.333 132.5,366C 133.942,366.377 134.942,367.21 135.5,368.5 Z"/></g>
<g><path style="opacity:1" fill="#502c1b" d="M 159.5,380.5 C 159.027,379.094 158.027,378.427 156.5,378.5C 155.127,378.343 153.793,378.51 152.5,379C 151.549,379.718 151.383,380.551 152,381.5C 158.468,384.401 164.468,388.067 170,392.5C 174.998,403.515 171.832,411.015 160.5,415C 156.167,415.667 151.833,415.667 147.5,415C 144.826,414.33 142.493,413.163 140.5,411.5C 139.738,409.738 138.404,408.738 136.5,408.5C 132.33,399.842 134.997,396.008 144.5,397C 145.984,397.662 147.317,398.496 148.5,399.5C 148.821,401.048 149.821,401.715 151.5,401.5C 154.68,401.824 155.847,400.49 155,397.5C 150.742,394.62 146.242,392.12 141.5,390C 139.536,388.549 138.203,386.716 137.5,384.5C 137.5,381.167 137.5,377.833 137.5,374.5C 138.927,371.236 141.261,368.736 144.5,367C 155.13,363.37 164.296,365.537 172,373.5C 174.567,381.272 171.734,384.439 163.5,383C 161.934,382.392 160.6,381.558 159.5,380.5 Z"/></g>
<g><path style="opacity:1" fill="#512d1c" d="M 225.5,372.5 C 225.427,374.027 226.094,375.027 227.5,375.5C 231.609,383.774 229.609,390.274 221.5,395C 217.605,396.266 213.605,396.766 209.5,396.5C 209.75,401.58 209.25,406.58 208,411.5C 205.867,413.853 203.2,414.853 200,414.5C 197.648,414.695 195.648,414.028 194,412.5C 192.868,405.434 192.368,398.267 192.5,391C 192.667,384.5 192.833,378 193,371.5C 193.295,369.069 194.462,367.236 196.5,366C 207.266,363.945 216.933,366.111 225.5,372.5 Z M 208.5,378.5 C 211.881,378.46 215.214,378.793 218.5,379.5C 218.703,381.39 218.037,382.89 216.5,384C 214.134,384.44 211.801,384.94 209.5,385.5C 208.631,383.283 208.298,380.95 208.5,378.5 Z"/></g>
<g><path style="opacity:1" fill="#4e2918" d="M 261.5,370.5 C 261.427,372.027 262.094,373.027 263.5,373.5C 266.221,377.675 267.554,382.341 267.5,387.5C 268.474,395.193 268.474,402.859 267.5,410.5C 264.796,413.303 261.463,414.137 257.5,413C 255.845,410.493 255.011,407.659 255,404.5C 248.142,401.337 244.475,403.671 244,411.5C 241.091,414.394 237.591,415.227 233.5,414C 231.333,413.167 229.833,411.667 229,409.5C 228.457,396.747 231.123,384.747 237,373.5C 244.427,364.434 252.593,363.434 261.5,370.5 Z M 255.5,391.5 C 252.5,391.5 249.5,391.5 246.5,391.5C 246.5,390.167 246.5,388.833 246.5,387.5C 246.98,384.349 248.646,382.015 251.5,380.5C 252.478,380.977 253.311,381.643 254,382.5C 254.953,385.432 255.453,388.432 255.5,391.5 Z"/></g>
<g><path style="opacity:1" fill="#4c2817" d="M 298.5,398.5 C 298.738,400.404 299.738,401.738 301.5,402.5C 302.5,402.833 303.167,403.5 303.5,404.5C 304.038,406.117 304.371,407.784 304.5,409.5C 302.455,414.168 299.122,415.501 294.5,413.5C 294.027,412.094 293.027,411.427 291.5,411.5C 288.45,409.451 286.117,406.784 284.5,403.5C 284.631,402.624 284.298,401.957 283.5,401.5C 282.52,404.086 282.187,406.753 282.5,409.5C 282.376,411.582 281.376,413.082 279.5,414C 276.833,414.667 274.167,414.667 271.5,414C 270.244,413.583 269.577,412.75 269.5,411.5C 269.5,397.833 269.5,384.167 269.5,370.5C 269.511,368.983 270.177,367.816 271.5,367C 281.059,364.597 290.392,365.264 299.5,369C 306.011,375.251 307.177,382.418 303,390.5C 301.104,392.53 298.937,394.197 296.5,395.5C 297.193,396.518 297.859,397.518 298.5,398.5 Z M 289.5,385.5 C 287.5,385.5 285.5,385.5 283.5,385.5C 283.737,384.209 283.404,383.209 282.5,382.5C 283.301,380.958 283.634,379.292 283.5,377.5C 287.337,377.562 290.837,378.562 294,380.5C 293.848,383.163 292.348,384.83 289.5,385.5 Z"/></g>
<g><path style="opacity:1" fill="#4d2918" d="M 337.5,370.5 C 337.427,372.027 338.094,373.027 339.5,373.5C 342.221,377.675 343.554,382.341 343.5,387.5C 343.19,390.713 343.523,393.713 344.5,396.5C 344.5,400.167 344.5,403.833 344.5,407.5C 344.703,409.39 344.037,410.89 342.5,412C 334.434,415.86 330.601,413.36 331,404.5C 324.142,401.337 320.475,403.671 320,411.5C 317.091,414.394 313.591,415.227 309.5,414C 307.249,413.252 305.916,411.752 305.5,409.5C 305.5,407.167 305.5,404.833 305.5,402.5C 304.832,388.991 309.165,377.491 318.5,368C 325.571,364.254 331.904,365.088 337.5,370.5 Z M 331.5,391.5 C 328.5,391.5 325.5,391.5 322.5,391.5C 322.5,390.167 322.5,388.833 322.5,387.5C 322.98,384.349 324.646,382.015 327.5,380.5C 328.478,380.977 329.311,381.643 330,382.5C 330.953,385.432 331.453,388.432 331.5,391.5 Z"/></g>
<g><path style="opacity:1" fill="#4f2b1a" d="M 404.5,373.5 C 405.906,373.027 406.573,372.027 406.5,370.5C 408.41,368.438 410.743,366.938 413.5,366C 420.871,364.69 427.871,365.69 434.5,369C 436.439,370.432 437.772,372.265 438.5,374.5C 438.5,376.5 438.5,378.5 438.5,380.5C 437.488,382.876 435.655,383.876 433,383.5C 430.779,383.607 428.946,382.94 427.5,381.5C 427.027,380.094 426.027,379.427 424.5,379.5C 422.545,378.677 420.545,378.51 418.5,379C 417.549,379.718 417.383,380.551 418,381.5C 422.755,384.128 427.588,386.628 432.5,389C 434.79,390.777 436.457,392.944 437.5,395.5C 438.403,398.391 438.736,401.391 438.5,404.5C 436.572,410.255 432.572,413.755 426.5,415C 419.479,416.194 412.813,415.194 406.5,412C 404.622,410.457 403.122,408.624 402,406.5C 400.884,413.654 396.717,416.154 389.5,414C 388.058,413.623 387.058,412.79 386.5,411.5C 386.827,401.319 386.494,391.319 385.5,381.5C 381.466,367.702 386.133,362.869 399.5,367C 400.126,367.75 400.626,368.584 401,369.5C 401.333,379.167 401.667,388.833 402,398.5C 403.912,397.308 405.912,396.308 408,395.5C 411.216,397.193 414.383,399.027 417.5,401C 419.906,401.779 421.573,400.946 422.5,398.5C 422.023,397.522 421.357,396.689 420.5,396C 415.061,393.533 409.894,390.7 405,387.5C 401.913,382.809 401.746,378.142 404.5,373.5 Z"/></g>
<g><path style="opacity:1" fill="#4f2a19" d="M 379.5,374.5 C 379.738,376.404 380.738,377.738 382.5,378.5C 383.931,379.78 384.598,381.447 384.5,383.5C 385.704,388.156 385.704,392.823 384.5,397.5C 382.682,405.483 377.682,410.316 369.5,412C 362.016,414.27 354.683,413.936 347.5,411C 346.748,410.329 346.414,409.496 346.5,408.5C 345.686,403.881 345.353,399.214 345.5,394.5C 345.5,388.833 345.5,383.167 345.5,377.5C 345.366,375.708 345.699,374.042 346.5,372.5C 347.906,372.027 348.573,371.027 348.5,369.5C 355.926,365.71 363.593,365.543 371.5,369C 374.621,370.306 377.287,372.14 379.5,374.5 Z M 364.5,378.5 C 372.727,381.967 375.227,387.967 372,396.5C 369.278,400.283 365.778,401.949 361.5,401.5C 359.257,394.269 358.923,386.935 360.5,379.5C 361.708,378.766 363.041,378.433 364.5,378.5 Z"/></g>
<g><path style="opacity:0.282" fill="#bcaea7" d="M 96.5,367.5 C 95.701,370.43 95.3677,373.43 95.5,376.5C 94.8333,376.167 94.1667,375.833 93.5,375.5C 94.3686,373.283 94.702,370.95 94.5,368.5C 95.1667,368.167 95.8333,367.833 96.5,367.5 Z"/></g>
<g><path style="opacity:0.392" fill="#b8a9a1" d="M 348.5,369.5 C 348.573,371.027 347.906,372.027 346.5,372.5C 346.427,370.973 347.094,369.973 348.5,369.5 Z"/></g>
<g><path style="opacity:0.376" fill="#bcada6" d="M 261.5,370.5 C 262.906,370.973 263.573,371.973 263.5,373.5C 262.094,373.027 261.427,372.027 261.5,370.5 Z"/></g>
<g><path style="opacity:0.38" fill="#bcada6" d="M 337.5,370.5 C 338.906,370.973 339.573,371.973 339.5,373.5C 338.094,373.027 337.427,372.027 337.5,370.5 Z"/></g>
<g><path style="opacity:0.49" fill="#ad9c93" d="M 406.5,370.5 C 406.573,372.027 405.906,373.027 404.5,373.5C 404.427,371.973 405.094,370.973 406.5,370.5 Z"/></g>
<g><path style="opacity:0.525" fill="#ae9d94" d="M 225.5,372.5 C 226.906,372.973 227.573,373.973 227.5,375.5C 226.094,375.027 225.427,374.027 225.5,372.5 Z"/></g>
<g><path style="opacity:0.769" fill="#ab9990" d="M 379.5,374.5 C 381.262,375.262 382.262,376.596 382.5,378.5C 380.738,377.738 379.738,376.404 379.5,374.5 Z"/></g>
<g><path style="opacity:0.494" fill="#a08c82" d="M 364.5,378.5 C 363.041,378.433 361.708,378.766 360.5,379.5C 360.62,378.414 361.287,377.747 362.5,377.5C 363.416,377.543 364.083,377.876 364.5,378.5 Z"/></g>
<g><path style="opacity:0.643" fill="#a9988f" d="M 440.5,371.5 C 440.037,374.482 439.704,377.482 439.5,380.5C 439.167,380.5 438.833,380.5 438.5,380.5C 438.5,378.5 438.5,376.5 438.5,374.5C 439.167,373.5 439.833,372.5 440.5,371.5 Z"/></g>
<g><path style="opacity:0.376" fill="#c2b5af" d="M 131.5,378.5 C 128.947,379.255 126.28,379.922 123.5,380.5C 125.635,378.631 128.302,377.964 131.5,378.5 Z"/></g>
<g><path style="opacity:0.761" fill="#a8958c" d="M 135.5,368.5 C 136.167,370.5 136.833,372.5 137.5,374.5C 137.5,377.833 137.5,381.167 137.5,384.5C 136.833,381.5 136.167,378.5 135.5,375.5C 135.5,373.167 135.5,370.833 135.5,368.5 Z"/></g>
<g><path style="opacity:0.459" fill="#ae9d94" d="M 156.5,378.5 C 158.027,378.427 159.027,379.094 159.5,380.5C 157.973,380.573 156.973,379.906 156.5,378.5 Z"/></g>
<g><path style="opacity:0.392" fill="#b9aaa3" d="M 424.5,379.5 C 426.027,379.427 427.027,380.094 427.5,381.5C 425.973,381.573 424.973,380.906 424.5,379.5 Z"/></g>
<g><path style="opacity:0.09" fill="#d0c6c1" d="M 47.5,378.5 C 45.5,378.5 43.5,378.5 41.5,378.5C 41.5,380.833 41.5,383.167 41.5,385.5C 40.5269,383.052 40.1936,380.385 40.5,377.5C 43.0593,377.198 45.3926,377.532 47.5,378.5 Z"/></g>
<g><path style="opacity:0.604" fill="#957f74" d="M 208.5,378.5 C 208.298,380.95 208.631,383.283 209.5,385.5C 208.275,384.848 207.608,383.681 207.5,382C 207.514,380.615 207.848,379.449 208.5,378.5 Z"/></g>
<g><path style="opacity:0.4" fill="#ae9d95" d="M 282.5,382.5 C 283.404,383.209 283.737,384.209 283.5,385.5C 285.5,385.5 287.5,385.5 289.5,385.5C 287.393,386.468 285.059,386.802 282.5,386.5C 282.5,385.167 282.5,383.833 282.5,382.5 Z"/></g>
<g><path style="opacity:0.58" fill="#947e73" d="M 269.5,370.5 C 269.5,384.167 269.5,397.833 269.5,411.5C 268.833,411.167 268.167,410.833 267.5,410.5C 268.474,402.859 268.474,395.193 267.5,387.5C 268.167,381.833 268.833,376.167 269.5,370.5 Z"/></g>
<g><path style="opacity:0.333" fill="#c7bcb6" d="M 246.5,387.5 C 246.5,388.833 246.5,390.167 246.5,391.5C 249.5,391.5 252.5,391.5 255.5,391.5C 252.375,392.479 249.042,392.813 245.5,392.5C 245.216,390.585 245.549,388.919 246.5,387.5 Z"/></g>
<g><path style="opacity:0.329" fill="#c7bcb6" d="M 322.5,387.5 C 322.5,388.833 322.5,390.167 322.5,391.5C 325.5,391.5 328.5,391.5 331.5,391.5C 328.375,392.479 325.042,392.813 321.5,392.5C 321.216,390.585 321.549,388.919 322.5,387.5 Z"/></g>
<g><path style="opacity:0.635" fill="#947e73" d="M 345.5,377.5 C 345.5,383.167 345.5,388.833 345.5,394.5C 344.662,394.842 344.328,395.508 344.5,396.5C 343.523,393.713 343.19,390.713 343.5,387.5C 344.167,384.167 344.833,380.833 345.5,377.5 Z"/></g>
<g><path style="opacity:0.698" fill="#968176" d="M 62.5,374.5 C 62.5,385.167 62.5,395.833 62.5,406.5C 61.8333,400.5 61.1667,394.5 60.5,388.5C 61.7425,384.484 61.7425,380.484 60.5,376.5C 61.1667,375.833 61.8333,375.167 62.5,374.5 Z"/></g>
<g><path style="opacity:0.2" fill="#e1dbd8" d="M 439.5,382.5 C 439.5,389.833 439.5,397.167 439.5,404.5C 439.167,404.5 438.833,404.5 438.5,404.5C 438.736,401.391 438.403,398.391 437.5,395.5C 438.167,391.167 438.833,386.833 439.5,382.5 Z"/></g>
<g><path style="opacity:0.839" fill="#a59187" d="M 298.5,398.5 C 300.262,399.262 301.262,400.596 301.5,402.5C 299.738,401.738 298.738,400.404 298.5,398.5 Z"/></g>
<g><path style="opacity:0.469" fill="#af9e96" d="M 385.5,381.5 C 386.494,391.319 386.827,401.319 386.5,411.5C 385.833,406.833 385.167,402.167 384.5,397.5C 385.704,392.823 385.704,388.156 384.5,383.5C 385.338,383.158 385.672,382.492 385.5,381.5 Z"/></g>
<g><path style="opacity:0.929" fill="#a38d83" d="M 148.5,399.5 C 149.71,399.932 150.71,400.599 151.5,401.5C 149.821,401.715 148.821,401.048 148.5,399.5 Z"/></g>
<g><path style="opacity:0.875" fill="#897164" d="M 86.5,402.5 C 87.7933,401.842 89.2933,401.508 91,401.5C 92.9855,401.569 94.4855,402.235 95.5,403.5C 92.6085,402.597 89.6085,402.264 86.5,402.5 Z"/></g>
<g><path style="opacity:0.392" fill="#c0b3ac" d="M 284.5,403.5 C 283.833,405.5 283.167,407.5 282.5,409.5C 282.187,406.753 282.52,404.086 283.5,401.5C 284.298,401.957 284.631,402.624 284.5,403.5 Z"/></g>
<g><path style="opacity:0.308" fill="#c9beb8" d="M 345.5,394.5 C 345.353,399.214 345.686,403.881 346.5,408.5C 345.833,408.167 345.167,407.833 344.5,407.5C 344.5,403.833 344.5,400.167 344.5,396.5C 344.328,395.508 344.662,394.842 345.5,394.5 Z"/></g>
<g><path style="opacity:0.376" fill="#a59288" d="M 454.5,401.5 C 457.054,402.388 459.721,402.721 462.5,402.5C 461.378,403.156 460.045,403.489 458.5,403.5C 456.667,403.415 455.334,402.748 454.5,401.5 Z"/></g>
<g><path style="opacity:0.255" fill="#dad2ce" d="M 305.5,402.5 C 305.5,404.833 305.5,407.167 305.5,409.5C 305.167,409.5 304.833,409.5 304.5,409.5C 304.371,407.784 304.038,406.117 303.5,404.5C 304.167,403.833 304.833,403.167 305.5,402.5 Z"/></g>
<g><path style="opacity:0.706" fill="#b7a79f" d="M 136.5,408.5 C 138.404,408.738 139.738,409.738 140.5,411.5C 138.596,411.262 137.262,410.262 136.5,408.5 Z"/></g>
<g><path style="opacity:0.698" fill="#b4a39c" d="M 291.5,411.5 C 293.027,411.427 294.027,412.094 294.5,413.5C 292.973,413.573 291.973,412.906 291.5,411.5 Z"/></g>
</svg>
